<svg width="48" height="49" viewBox="0 0 48 49" fill="none" xmlns="http://www.w3.org/2000/svg">
<g clip-path="url(#clip0_3860_68)">
<path d="M32.85 37.516C32.85 37.366 32.85 37.366 32.7 37.216C32.55 36.916 32.55 36.766 32.4 36.466V36.316C31.65 34.516 30.15 33.016 28.2 32.416L21.75 30.316V27.316C22.5 26.716 23.25 26.116 23.85 25.366H24C26.55 25.366 28.5 23.266 28.5 20.866V17.716C28.5 16.516 27.45 15.466 26.25 15.466L27 13.366C27.3 12.166 27 11.116 26.25 10.216C25.65 9.46603 24.9 9.01603 24 8.86603C23.85 7.81603 23.25 6.76603 22.5 6.01603C21.45 5.11603 20.25 4.81603 18.9 4.96603L9.9 6.46603C8.55 6.61603 7.5 7.21603 6.9 8.26603C6.15 9.16603 5.85 10.366 6.15 11.716L7.05 15.316H6.75C5.55 15.316 4.5 16.366 4.5 17.566V19.066C4.5 20.266 5.55 21.316 6.75 21.316H7.65C8.1 23.716 9.45 25.816 11.4 27.166V30.166L4.95 32.266C3 32.866 1.5 34.366 0.75 36.166C0.6 36.466 0.6 36.616 0.45 36.916C0.45 37.066 0.45 37.066 0.3 37.216C0.3 37.366 0.15 37.666 0.15 37.816C0 38.416 0 38.716 0 39.016V44.566C0 45.016 0.3 45.316 0.75 45.316H32.1C32.55 45.316 32.85 45.016 32.85 44.566V39.016C32.85 38.716 32.85 38.416 32.7 37.966C32.85 37.816 32.85 37.666 32.85 37.516ZM24.6 23.566C24.9 22.816 25.2 22.066 25.35 21.316H26.25C26.55 21.316 26.7 21.316 27 21.166C26.7 22.366 25.8 23.266 24.6 23.566ZM26.25 16.816C26.7 16.816 27 17.116 27 17.566V19.066C27 19.516 26.7 19.816 26.25 19.816H25.5V17.566V17.416L25.65 16.816H26.25ZM8.1 9.01603C8.55 8.41603 9.3 7.96603 10.05 7.81603L19.05 6.31603C19.95 6.16603 20.85 6.46603 21.45 6.91603C22.05 7.36603 22.5 8.41603 22.5 9.31603C22.5 9.76603 22.8 10.066 23.25 10.066C24 10.066 24.6 10.366 25.05 10.966C25.5 11.566 25.65 12.166 25.5 12.766L24.3 16.366C24 16.366 23.7 16.066 23.7 15.766V13.366C23.7 12.766 23.4 12.316 22.95 12.166C22.5 11.866 21.9 12.016 21.45 12.316C19.05 14.116 15.9 14.866 12.9 14.266L11.4 13.966C10.35 13.966 9.3 14.866 9.3 16.066C9.3 16.366 9.15 16.516 8.85 16.666L7.5 11.416C7.35 10.516 7.65 9.76603 8.1 9.01603ZM7.5 19.816H6.75C6.3 19.816 6 19.516 6 19.066V17.566C6 17.116 6.3 16.816 6.75 16.816H7.35L7.5 17.416V19.816ZM9 19.816V18.016C10.05 17.866 10.8 17.116 10.8 16.066C10.8 15.766 11.1 15.466 11.25 15.466L12.6 15.766C15.9 16.366 19.35 15.616 22.2 13.666V16.066C22.2 17.116 22.95 18.016 24 18.016V19.816C24 21.316 23.55 22.516 22.95 23.716H18.75C18.3 23.716 18 24.016 18 24.466C18 24.916 18.3 25.216 18.75 25.216H21.75C20.4 26.416 18.45 27.316 16.5 27.316C12.3 27.316 9 23.866 9 19.816ZM16.5 28.816C17.85 28.816 19.05 28.516 20.1 28.066V30.166C20.1 31.666 17.7 33.166 16.5 33.766C15.3 33.166 12.9 31.666 12.9 30.166V28.066C13.95 28.516 15.15 28.816 16.5 28.816ZM5.25 33.766L11.7 31.666C12.75 33.616 15.75 34.966 16.05 35.116H16.65C17.1 34.966 19.95 33.616 21 31.666L27.45 33.766C28.35 34.066 29.25 34.666 29.85 35.266C26.55 36.316 24 39.616 24 43.366V43.816H9V43.366C9 39.616 6.45 36.316 3 35.416C3.6 34.666 4.35 34.066 5.25 33.766ZM1.5 43.816V39.016C1.5 38.566 1.5 38.266 1.65 37.816V37.666C1.8 37.216 1.8 36.916 2.1 36.616C5.25 37.216 7.5 40.066 7.5 43.366V43.816H1.5ZM31.5 43.816H25.5V43.366C25.5 40.066 27.9 37.366 31.05 36.616C31.2 36.916 31.35 37.366 31.5 37.666V37.816C31.65 38.266 31.65 38.566 31.65 39.016V43.816H31.5Z" fill="white"/>
<path d="M47.9991 15.3159C47.9991 13.2159 47.3991 11.2659 46.4991 9.46592V9.31592L46.3491 9.16592C45.2991 7.36592 43.6491 5.71592 41.8491 4.81592C40.1991 3.91592 38.2491 3.31592 36.1491 3.31592C34.0491 3.31592 32.0991 3.91592 30.2991 4.81592H30.1491H29.9991C28.7991 5.56592 27.7491 6.46592 26.8491 7.51592C26.5491 7.81592 26.6991 8.26592 26.9991 8.56592C27.2991 8.86592 27.7491 8.86592 28.0491 8.41592C28.6491 7.66592 29.3991 6.91592 30.2991 6.46592L30.5991 7.06592C30.7491 7.36592 31.0491 7.51592 31.1991 7.51592C31.3491 7.51592 31.4991 7.51592 31.4991 7.36592C31.7991 7.21592 31.9491 6.76592 31.7991 6.31592L31.4991 5.86592C32.6991 5.26592 33.8991 4.96592 35.2491 4.81592V7.06592C35.2491 7.51592 35.5491 7.81592 35.9991 7.81592C36.4491 7.81592 36.7491 7.51592 36.7491 7.06592V4.81592C38.0991 4.96592 39.2991 5.26592 40.3491 5.71592L40.0491 6.31592C39.8991 6.61592 40.0491 7.06592 40.3491 7.36592C40.4991 7.36592 40.6491 7.51592 40.6491 7.51592C40.9491 7.51592 41.0991 7.36592 41.2491 7.06592L41.5491 6.46592C42.7491 7.21592 43.7991 8.26592 44.5491 9.46592L43.9491 9.76592C43.6491 9.91592 43.4991 10.3659 43.6491 10.8159C43.7991 11.1159 44.0991 11.2659 44.2491 11.2659C44.3991 11.2659 44.5491 11.2659 44.5491 11.1159L45.4491 10.8159C46.0491 12.0159 46.3491 13.2159 46.4991 14.5659H44.2491C43.7991 14.4159 43.4991 14.8659 43.4991 15.3159C43.4991 15.7659 43.7991 16.0659 44.2491 16.0659H46.4991C46.3491 17.4159 46.0491 18.6159 45.5991 19.6659L44.9991 19.3659C44.6991 19.2159 44.2491 19.3659 43.9491 19.6659C43.7991 19.9659 43.9491 20.4159 44.2491 20.7159L44.8491 21.0159C44.0991 22.2159 43.0491 23.2659 41.8491 24.0159L41.5491 23.4159C41.3991 23.1159 40.9491 22.9659 40.4991 23.1159C40.1991 23.2659 40.0491 23.7159 40.1991 24.1659L40.4991 24.7659C39.2991 25.3659 38.0991 25.6659 36.7491 25.8159V23.5659C36.7491 23.1159 36.4491 22.8159 35.9991 22.8159C35.5491 22.8159 35.2491 23.1159 35.2491 23.5659V25.8159C34.0491 25.6659 32.8491 25.3659 31.6491 24.9159L31.9491 24.3159C32.0991 24.0159 31.9491 23.5659 31.6491 23.2659C31.3491 23.1159 30.8991 23.2659 30.5991 23.5659L30.2991 24.1659C30.1491 24.0159 29.9991 24.0159 29.9991 24.0159C29.6991 23.7159 29.2491 23.8659 28.9491 24.1659C28.6491 24.4659 28.7991 24.9159 29.0991 25.2159C29.3991 25.3659 29.6991 25.5159 29.9991 25.8159L30.1491 25.9659H30.2991C31.9491 26.8659 33.8991 27.3159 35.8491 27.3159C37.9491 27.3159 39.8991 26.7159 41.6991 25.8159L41.8491 25.6659C43.6491 24.6159 45.2991 22.9659 46.3491 21.1659C47.5491 19.3659 47.9991 17.4159 47.9991 15.3159Z" fill="white"/>
<path d="M38.6996 10.8159C38.2496 10.8159 37.9496 10.9659 37.7996 11.4159L36.5996 17.4159C36.5996 17.5659 36.5996 17.8659 36.7496 18.0159C36.8996 18.1659 37.3496 18.3159 37.4996 18.3159H39.7496V19.0659C39.7496 19.5159 40.0496 19.8159 40.4996 19.8159C40.9496 19.8159 41.2496 19.5159 41.2496 19.0659V18.3159H41.9996C42.4496 18.3159 42.7496 18.0159 42.7496 17.5659C42.7496 17.1159 42.4496 16.8159 41.9996 16.8159H41.2496V14.5659C41.2496 14.1159 40.9496 13.8159 40.4996 13.8159C40.0496 13.8159 39.7496 14.1159 39.7496 14.5659V16.8159H38.3996L39.2996 11.7159C39.4496 11.2659 39.1496 10.9659 38.6996 10.8159Z" fill="white"/>
<path d="M35.2496 13.8159C35.2496 12.1659 33.8996 10.8159 32.2496 10.8159C30.5996 10.8159 29.2496 12.1659 29.2496 13.8159C29.2496 14.2659 29.5496 14.5659 29.9996 14.5659C30.4496 14.5659 30.7496 14.2659 30.7496 13.8159C30.7496 12.9159 31.3496 12.3159 32.2496 12.3159C33.1496 12.3159 33.7496 12.9159 33.7496 13.8159C33.7496 14.2659 33.5996 14.5659 33.2996 14.8659L29.3996 18.6159C29.2496 18.7659 29.0996 19.2159 29.2496 19.3659C29.3996 19.6659 29.6996 19.8159 29.9996 19.8159H34.4996C34.9496 19.8159 35.2496 19.5159 35.2496 19.0659C35.2496 18.6159 34.9496 18.3159 34.4996 18.3159H31.9496L34.4996 15.9159C34.9496 15.3159 35.2496 14.5659 35.2496 13.8159Z" fill="white"/>
</g>
<defs>
<clipPath id="clip0_3860_68">
<rect width="48" height="48" fill="white" transform="translate(0 0.315918)"/>
</clipPath>
</defs>
</svg>
