<svg width="19" height="19" viewBox="0 0 19 19" fill="none" xmlns="http://www.w3.org/2000/svg">
<path d="M9.66543 17.5872C14.2864 17.5872 18.0672 13.8064 18.0672 9.18544C18.0672 4.56448 14.2864 0.783691 9.66543 0.783691C5.04446 0.783691 1.26367 4.56448 1.26367 9.18544C1.26367 13.8064 5.04446 17.5872 9.66543 17.5872Z" stroke="white" stroke-width="1.05022" stroke-linecap="round" stroke-linejoin="round"/>
<path d="M7.14195 12.8455C6.62466 12.8455 6.33835 12.2458 6.66359 11.8436L8.96572 8.99617C9.03436 8.91128 9.17157 8.95981 9.17157 9.06897C9.17157 9.17814 9.03434 9.22667 8.96571 9.14177L6.85145 6.52598C6.52671 6.12421 6.81267 5.52539 7.32927 5.52539C7.51841 5.52539 7.69702 5.61251 7.81345 5.76158L9.76595 8.26128C9.82602 8.33818 9.77123 8.45052 9.67364 8.45052C9.57606 8.45052 9.52126 8.33818 9.58133 8.26128L11.5349 5.76019C11.6507 5.612 11.8282 5.52539 12.0163 5.52539C12.5289 5.52539 12.8135 6.11885 12.4925 6.51857L10.3917 9.13467C10.3296 9.21197 10.2048 9.16808 10.2048 9.06893C10.2048 8.96981 10.3296 8.9259 10.3916 9.00317L12.6665 11.834C12.9935 12.241 12.7038 12.8455 12.1817 12.8455C11.9903 12.8455 11.8095 12.7573 11.6917 12.6065L9.58083 9.90513C9.52097 9.82853 9.57555 9.71662 9.67276 9.71662C9.77029 9.71662 9.82478 9.82916 9.76429 9.90566L7.6245 12.6119C7.50783 12.7594 7.33006 12.8455 7.14195 12.8455Z" fill="white"/>
</svg>
