<svg width="48" height="49" viewBox="0 0 48 49" fill="none" xmlns="http://www.w3.org/2000/svg">
<path d="M43.0142 17.2637C46.4245 17.2824 47.9095 12.4427 44.8495 10.7162L42.547 9.38717C39.1982 7.41992 35.6147 12.0474 38.2457 14.8359L35.767 19.1304C33.9685 18.2957 32.0822 17.6648 30.1435 17.2494C30.0216 17.2225 29.8949 17.2267 29.775 17.2617C29.6552 17.2967 29.5462 17.3614 29.458 17.4497C26.8412 20.0454 25.969 24.2244 25.4732 28.8234C24.4862 27.6632 22.9585 26.9327 21.3527 27.0294C21.0004 26.4064 20.5098 25.8725 19.9187 25.4689C19.3276 25.0653 18.6517 24.8028 17.9432 24.7014C17.9635 23.6311 18.1552 22.5709 18.511 21.5612C23.1242 22.8362 27.7262 19.3644 28.288 14.4264C28.302 14.3213 28.2937 14.2145 28.2634 14.1129C28.2332 14.0112 28.1817 13.9172 28.1125 13.8369C22.81 7.98542 13.828 13.1034 17.2375 20.6942C17.0055 21.285 16.8231 21.8941 16.6922 22.5152C16.0945 21.5132 15.0542 20.4392 14.0417 19.8114C12.9407 13.4994 4.5242 12.2664 1.5692 17.9387C1.51525 18.0437 1.48686 18.16 1.48634 18.2781C1.48581 18.3961 1.51318 18.5127 1.5662 18.6182C3.85445 23.3087 9.7712 24.3399 13.1927 21.0467C14.53 21.8244 15.7682 23.5652 16.1432 24.8019C14.5817 25.1889 13.2955 26.3492 12.7915 27.9017C10.489 28.3217 8.73395 30.2942 8.61095 32.6507C5.47295 31.8849 2.7737 35.3717 4.2677 38.2179H2.23595C1.26695 38.2292 1.2362 39.6999 2.23595 39.7179H45.736C46.705 39.7059 46.7357 38.2352 45.736 38.2179H44.623C45.1487 35.8389 43.6345 33.3744 41.3162 32.7474C41.1823 32.3895 40.9972 32.053 40.7665 31.7484C42.7285 29.8254 43.9007 28.0097 44.413 26.0799C44.4452 25.9588 44.4466 25.8314 44.417 25.7096C44.3874 25.5878 44.3277 25.4753 44.2435 25.3824C42.9126 23.9161 41.4236 22.6016 39.8035 21.4629L42.2785 17.1752C42.52 17.2299 42.766 17.2637 43.0142 17.2637ZM19.3667 14.0762C21.3107 12.1539 24.9107 12.5574 26.749 14.5674C26.1835 18.3729 22.5932 21.0302 19.126 20.1639C19.9167 18.7055 21.0483 17.4598 22.4245 16.5332C22.59 16.4228 22.705 16.2511 22.744 16.056C22.7831 15.8608 22.743 15.6581 22.6326 15.4925C22.5779 15.4106 22.5076 15.3401 22.4258 15.2853C22.3439 15.2305 22.252 15.1923 22.1554 15.173C21.9602 15.1339 21.7575 15.174 21.592 15.2844C20.2101 16.2098 19.042 17.4198 18.166 18.8334C17.7512 17.0762 18.1682 15.2349 19.366 14.0754L19.3667 14.0762ZM8.59745 19.8212C9.08945 19.7994 10.3262 19.8107 11.71 20.3139C9.07445 22.4799 4.81895 21.4967 3.0917 18.2897C5.2127 14.7114 10.6427 15.0677 12.2312 18.9099C10.5812 18.3099 9.11345 18.2964 8.52845 18.3227C7.5437 18.3864 7.6127 19.8452 8.59745 19.8212ZM35.176 38.2179H6.13295C4.02395 36.2304 6.5762 32.9154 9.05045 34.4304C9.5837 34.7852 10.33 34.2579 10.177 33.6377C9.7232 31.5549 11.3125 29.4609 13.4432 29.3282C13.607 29.3162 13.7623 29.2508 13.8854 29.142C14.0084 29.0332 14.0923 28.887 14.1242 28.7259C14.3695 27.4877 15.325 26.5412 16.513 26.2509C16.6247 27.1562 17.9282 27.1562 17.9965 26.2427C18.4893 26.3559 18.948 26.5851 19.3345 26.9112C19.721 27.2373 20.0242 27.6509 20.2187 28.1177C20.3477 28.4312 20.6702 28.6127 21.0062 28.5752C23.0477 28.2002 25.0472 29.7534 25.1957 31.8197C25.2242 32.3957 25.9532 32.7197 26.3995 32.3559C28.411 30.7119 31.6052 32.3079 31.5385 34.8872C31.5085 35.3672 31.3307 35.9619 31.8707 36.2252C32.0104 36.2991 32.1699 36.327 32.3264 36.305C32.4829 36.2829 32.6284 36.2119 32.7422 36.1022C33.0527 35.8022 33.4532 35.6372 33.871 35.6372C35.1595 35.6004 35.9702 37.1994 35.176 38.2179ZM43.2235 37.2654C43.2235 37.5984 43.156 37.9127 43.0585 38.2179H36.8267C37.3487 36.7839 36.5785 35.1107 35.2682 34.4837C34.843 31.4387 39.2282 30.5612 39.997 33.5537C40.0308 33.6958 40.1053 33.8249 40.2115 33.9253C40.3177 34.0256 40.4509 34.0927 40.5947 34.1184C41.3327 34.2507 42.0006 34.6386 42.4812 35.214C42.9619 35.7894 43.2246 36.5157 43.2235 37.2654ZM42.8485 26.0829C42.3497 27.6249 41.3155 29.1264 39.6535 30.7404C37.144 29.1482 33.616 31.1649 33.7397 34.1469C33.4862 34.1574 33.2372 34.1927 32.9972 34.2632C32.6777 31.4192 29.5562 29.4324 26.8187 30.4472C27.2522 25.7417 27.9152 21.3804 30.2365 18.8064C31.8797 19.1862 33.4804 19.7313 35.014 20.4332L34.5422 21.2507C33.0947 23.8584 37.0172 26.1437 38.5772 23.5862L39.0512 22.7649C40.4248 23.7413 41.6969 24.8524 42.8485 26.0829ZM37.2797 22.8347C36.7922 23.7047 35.3252 22.8617 35.8397 22.0029L39.4622 15.7307L40.9007 16.5617L37.2797 22.8347ZM39.7795 14.1819C37.612 12.9317 39.64 9.43442 41.797 10.6869L44.0995 12.0159C46.2595 13.2857 44.257 16.7499 42.082 15.5109L39.7795 14.1819Z" fill="white"/>
</svg>
