<svg width="48" height="49" viewBox="0 0 48 49" fill="none" xmlns="http://www.w3.org/2000/svg">
<path d="M25.2975 14.0436C25.2975 11.8539 23.4733 10.0713 21.2301 10.0713C18.9881 10.0713 17.1641 11.8539 17.1641 14.0436C17.1639 19.2998 25.2975 19.2972 25.2975 14.0436ZM21.2301 15.2731C20.5002 15.2731 19.9069 14.7214 19.9069 14.0436C19.9069 13.3659 20.5002 12.8141 21.2301 12.8141C21.9599 12.8141 22.5546 13.3659 22.5546 14.0436C22.5546 14.7214 21.9599 15.2731 21.2301 15.2731Z" fill="white"/>
<path d="M2.08398 44.9798C2.08398 45.7378 2.69742 46.3512 3.45541 46.3512H44.5446C45.3026 46.3512 45.9161 45.7378 45.9161 44.9798C45.9161 44.2218 45.3026 43.6084 44.5446 43.6084H37.3914C37.4113 43.515 37.4478 43.4279 37.4478 43.3285C37.4478 40.3071 35.0812 37.8495 32.1737 37.8495C31.4009 37.8495 30.6563 38.0195 29.9732 38.3463C28.4223 37.1919 26.3103 36.9026 24.5532 37.583C24.4099 37.3806 24.2496 37.1943 24.0814 37.0162C24.1195 36.91 24.1644 36.8062 24.1755 36.6898C24.1782 36.6791 24.1795 36.667 24.1809 36.655C24.3148 35.9184 24.4353 35.1818 24.5304 34.4572C24.5505 34.3822 24.5653 34.3072 24.5734 34.231C24.5801 34.1947 24.5961 34.1185 24.6001 34.1011C24.6082 34.0569 24.6135 34.0019 24.6175 33.9471C24.6259 33.8888 24.6316 33.8299 24.6397 33.7714C25.5539 34.0639 26.4881 34.2068 27.4126 34.2068C30.9483 34.2054 34.3287 32.1578 35.834 28.7345C35.9813 28.401 35.9894 28.0233 35.8568 27.6846C35.7242 27.3458 35.463 27.0725 35.1295 26.9266C31.6344 25.3965 27.7711 26.1713 25.1799 28.6209C25.2768 27.1992 25.3276 25.7735 25.3379 24.3468C25.5247 24.099 25.6634 23.8439 25.7584 23.5984C28.9695 25.1478 33.7799 21.1659 32.416 18.1341C35.8193 17.035 35.8184 11.1745 32.4133 10.0797C33.7798 7.07146 29.0065 3.04001 25.7584 4.61002C24.5513 1.50538 17.9078 1.50442 16.6968 4.60865C13.4597 3.04577 8.6822 7.07406 10.0475 10.0794C6.64248 11.1742 6.64028 17.0378 10.0461 18.1338C8.63544 21.2697 13.5738 25.1042 16.697 23.5995C17.1068 24.6548 18.2278 25.8964 21.2305 25.8964C21.7337 25.8964 22.1664 25.851 22.5694 25.7879C22.4939 28.3998 22.2721 31.0241 21.8934 33.6174C21.8907 33.6334 21.8881 33.6522 21.8867 33.6736C21.876 33.7219 21.864 33.7821 21.8546 33.8518C21.8386 33.9094 21.8279 33.967 21.8198 34.0259C21.7559 34.5286 21.6651 35.0415 21.5784 35.5527C21.1999 35.4613 20.808 35.4108 20.407 35.4108C18.0163 35.4108 16.0007 37.1104 15.4248 39.4059C13.3302 39.6015 11.636 41.3613 11.4913 43.5711C11.4905 43.5841 11.4968 43.5955 11.4964 43.6085H3.45569C2.69742 43.6084 2.08398 44.2218 2.08398 44.9798ZM32.5179 28.9807C31.0742 30.8343 28.6982 31.761 26.3746 31.378C27.8251 29.4897 30.1876 28.5803 32.5179 28.9807ZM18.8545 18.9656C17.0774 18.0832 16.5048 21.2343 15.0576 21.2343C14.0404 21.2343 12.5317 19.7851 12.5317 19.3152C12.5317 18.96 14.3351 18.0054 14.6518 17.842C16.0613 17.1139 15.2993 14.9532 13.7398 15.2812C11.1434 15.8271 10.2589 15.8925 10.2589 14.104C10.2589 12.3532 11.053 12.3789 13.7344 12.9281C14.3934 13.0621 15.0724 12.6898 15.3014 12.0455C15.5318 11.4026 15.2531 10.6875 14.6478 10.37C14.3437 10.2108 12.5317 9.23996 12.5317 8.89546C12.5317 8.39735 14.5852 6.24915 15.8062 7.27758C16.9178 8.21907 17.4248 9.95365 18.8545 9.24366C20.3026 8.52764 19.2108 7.13537 19.2108 5.82716C19.2108 4.78762 23.2433 4.7835 23.2433 5.82716C23.2433 7.10958 22.1718 8.5419 23.6103 9.24503C25.4046 10.13 25.9511 6.97354 27.4006 6.97354C28.4175 6.97354 29.9292 8.42204 29.9292 8.89546C29.9292 9.24394 28.1197 10.2075 27.8105 10.3686C26.4097 11.1 27.168 13.2411 28.7212 12.928C31.3058 12.3979 32.2021 12.3143 32.2021 14.1039C32.2021 17.6017 28.0551 13.6643 27.1542 16.1596C26.4503 18.1208 29.9292 18.4292 29.9292 19.315C29.9292 19.7887 28.4206 21.2342 27.4006 21.2342C26.6395 21.2342 25.81 20.0539 25.33 19.394C24.4357 18.1615 22.4885 19.1048 22.9005 20.5713C23.1537 21.4699 23.2433 22.1088 23.2433 22.3819C23.2433 23.0784 21.8357 23.1534 21.2304 23.1534C16.8338 23.1535 21.2608 20.1524 18.8545 18.9656ZM15.8145 42.1298C15.9578 42.1298 16.0876 42.1486 16.1935 42.1847C16.6421 42.3387 17.1457 42.2731 17.5127 41.9703C17.8797 41.6675 18.0672 41.2217 18.0015 40.7503C18.0015 39.3187 19.0809 38.1534 20.4068 38.1534C21.4287 38.1534 22.3394 38.8498 22.6728 39.8877C22.8094 40.3123 23.1443 40.6431 23.5702 40.7769C23.9987 40.9109 24.4608 40.8264 24.8131 40.5546C26.0145 39.6331 27.7608 39.8166 28.8001 40.9697C29.2835 41.5095 30.1072 41.5751 30.6751 41.1238C31.1104 40.7755 31.6287 40.5921 32.1738 40.5921C33.5694 40.5921 34.7051 41.8188 34.7051 43.3282C34.7051 43.4276 34.7415 43.5147 34.7617 43.6081H14.2635C14.3847 42.7721 15.0303 42.1298 15.8145 42.1298Z" fill="white"/>
</svg>
