<svg width="48" height="49" viewBox="0 0 48 49" fill="none" xmlns="http://www.w3.org/2000/svg">
<g clip-path="url(#clip0_3860_91)">
<path d="M24.0742 26.4158C18.5242 26.4158 14.3242 19.2908 14.3242 12.9158V12.8408V12.5408C14.3242 12.1658 14.6992 11.7908 15.0742 11.8658C15.4492 11.8658 15.7492 12.2408 15.7492 12.6158V12.9158C15.7492 18.5408 19.3492 25.0658 23.9992 25.0658C25.0492 25.0658 26.0242 24.7658 27.0742 24.0908C30.1492 22.0658 32.3242 17.4158 32.3242 12.9908V12.4658C32.3242 12.0908 32.6242 11.7158 32.9992 11.7158C33.3742 11.7158 33.7492 12.0158 33.7492 12.3908V12.4658C33.7492 12.6908 33.7492 12.9158 33.7492 12.9158C33.7492 17.7908 31.2742 22.9658 27.8242 25.2158C26.6992 25.9658 25.3492 26.4158 24.0742 26.4158Z" fill="white"/>
<path d="M31.125 13.966C30.3 13.966 29.4 13.741 28.35 13.291C27.975 13.216 25.725 12.616 24 12.541C22.275 12.541 20.025 13.141 19.65 13.291C17.775 14.116 16.2 14.191 15.15 13.516C13.725 12.616 13.65 10.816 13.65 10.516C13.575 10.066 13.2 5.56597 15.6 2.79097C16.725 1.51597 18.225 0.840967 20.175 0.765967C22.725 0.690967 25.275 0.690967 27.825 0.765967C29.7 0.840967 31.275 1.51597 32.4 2.79097C34.8 5.49097 34.425 9.99097 34.425 10.516C34.425 10.816 34.35 12.616 32.925 13.516C32.4 13.816 31.8 13.966 31.125 13.966ZM24 2.11597C22.725 2.11597 21.45 2.11597 20.25 2.19097C18.75 2.26597 17.55 2.71597 16.725 3.76597C14.7 6.09097 15.075 10.366 15.075 10.441V10.516C15.075 10.516 15.075 11.866 15.9 12.391C16.575 12.841 17.625 12.691 19.05 12.016H19.125C19.2 12.016 21.825 11.266 23.925 11.191C25.95 11.191 28.575 11.941 28.725 12.016H28.8C30.225 12.691 31.35 12.766 32.025 12.391C32.85 11.866 32.85 10.516 32.85 10.516V10.441C32.85 10.366 33.225 6.16597 31.2 3.76597C30.3 2.79097 29.175 2.26597 27.675 2.19097C26.55 2.11597 25.275 2.11597 24 2.11597Z" fill="white"/>
<path d="M33.6743 11.1909C33.5993 11.1909 33.4493 11.1909 33.3743 11.1159C27.1493 8.34087 20.8493 8.34087 14.6243 11.1159C14.2493 11.2659 13.8743 11.1159 13.6493 10.7409C13.4993 10.3659 13.6493 9.99087 14.0243 9.76587C20.6243 6.76587 27.2993 6.76587 33.8993 9.76587C34.2743 9.91587 34.4243 10.3659 34.2743 10.7409C34.1993 11.0409 33.8993 11.1909 33.6743 11.1909Z" fill="white"/>
<path d="M12.5254 38.791C12.1504 38.791 11.7754 38.491 11.7754 38.041V27.841C11.7754 27.466 12.0754 27.091 12.5254 27.091C12.9754 27.091 13.2754 27.391 13.2754 27.841V38.041C13.2754 38.416 12.9754 38.791 12.5254 38.791ZM15.6754 38.716C15.3004 38.716 14.9254 38.416 14.9254 37.966V27.166C14.9254 26.791 15.2254 26.416 15.6754 26.416C16.1254 26.416 16.4254 26.716 16.4254 27.166V38.041C16.3504 38.416 16.0504 38.716 15.6754 38.716ZM32.3254 38.716C31.9504 38.716 31.5754 38.416 31.5754 37.966V27.166C31.5754 26.791 31.8754 26.416 32.3254 26.416C32.7004 26.416 33.0754 26.716 33.0754 27.166V38.041C33.0754 38.416 32.7754 38.716 32.3254 38.716ZM35.4754 38.791C35.1004 38.791 34.7254 38.491 34.7254 38.041V27.841C34.7254 27.466 35.0254 27.091 35.4754 27.091C35.8504 27.091 36.2254 27.391 36.2254 27.841V38.041C36.1504 38.416 35.8504 38.791 35.4754 38.791Z" fill="white"/>
<path d="M10.125 46.291C9.75 46.291 9.375 45.991 9.375 45.541V40.741C9.375 39.016 10.65 37.516 12.45 37.366C12.6 37.366 35.325 37.366 35.475 37.366C37.2 37.516 38.55 39.016 38.55 40.741V45.541C38.55 45.916 38.25 46.291 37.8 46.291C37.425 46.291 37.05 45.991 37.05 45.541V40.741C37.05 39.766 36.3 38.866 35.25 38.791C34.875 38.791 12.9 38.791 12.45 38.791C11.475 38.866 10.725 39.766 10.725 40.741V45.541C10.875 45.916 10.575 46.291 10.125 46.291Z" fill="white"/>
<path d="M14.0996 43.741C13.0496 43.741 12.2246 42.916 12.2246 41.866C12.2246 40.816 13.0496 39.991 14.0996 39.991C15.1496 39.991 15.9746 40.816 15.9746 41.866C15.9746 42.916 15.1496 43.741 14.0996 43.741ZM14.0996 41.416C13.8746 41.416 13.6496 41.641 13.6496 41.866C13.6496 42.091 13.8746 42.316 14.0996 42.316C14.3246 42.316 14.5496 42.091 14.5496 41.866C14.5496 41.641 14.3246 41.416 14.0996 41.416ZM33.8996 43.741C32.8496 43.741 32.0246 42.916 32.0246 41.866C32.0246 40.816 32.8496 39.991 33.8996 39.991C34.9496 39.991 35.7746 40.816 35.7746 41.866C35.7746 42.916 34.9496 43.741 33.8996 43.741ZM33.8996 41.416C33.6746 41.416 33.4496 41.641 33.4496 41.866C33.4496 42.091 33.6746 42.316 33.8996 42.316C34.1246 42.316 34.3496 42.091 34.3496 41.866C34.3496 41.641 34.1246 41.416 33.8996 41.416Z" fill="white"/>
<path d="M23.924 47.941C19.274 47.941 14.549 47.341 9.97404 46.216C8.39904 45.841 6.82404 45.391 5.32404 44.866C5.09904 44.791 4.87404 44.566 4.87404 44.341C3.82404 38.341 3.37404 31.741 8.32404 28.666C8.92404 28.291 9.52404 27.991 10.274 27.766C10.949 27.541 11.624 27.316 12.449 27.091C13.574 26.791 14.549 26.566 15.599 26.416C15.674 26.416 15.824 26.341 15.899 26.341H16.049C17.549 25.966 18.449 24.991 18.899 23.491C18.974 23.116 19.424 22.891 19.799 22.966C20.174 23.041 20.399 23.491 20.324 23.866C19.799 25.891 18.449 27.166 16.424 27.766L16.199 27.841C16.124 27.841 15.974 27.841 15.899 27.916C14.849 28.066 13.874 28.291 12.824 28.591C12.074 28.816 11.399 28.966 10.799 29.191C10.199 29.416 9.59904 29.641 9.14904 29.941C5.02404 32.491 5.32404 38.041 6.29904 43.741C7.64904 44.191 9.07404 44.566 10.424 44.941C19.499 47.191 28.649 47.116 37.799 44.941C39.224 44.566 40.574 44.191 41.924 43.816C42.824 38.416 43.199 32.566 39.074 30.016C38.624 29.716 38.024 29.491 37.424 29.266C36.749 29.041 36.074 28.816 35.399 28.666C34.424 28.366 33.374 28.216 32.399 27.991C32.249 27.991 32.174 27.916 32.099 27.916H31.949C29.924 27.391 28.574 26.116 28.049 24.166C27.974 23.791 28.124 23.416 28.574 23.266C28.949 23.191 29.324 23.341 29.474 23.791C29.924 25.291 30.824 26.191 32.324 26.566H32.399C32.549 26.566 32.624 26.566 32.774 26.641C33.824 26.791 34.874 27.016 35.924 27.316C36.674 27.466 37.349 27.691 38.099 27.991C38.774 28.216 39.449 28.516 39.974 28.891C44.924 31.966 44.474 38.566 43.424 44.566C43.349 44.791 43.199 45.016 42.974 45.091C41.474 45.616 39.899 45.991 38.324 46.441C33.374 47.341 28.649 47.941 23.924 47.941Z" fill="white"/>
<path d="M23.9995 31.066C20.8495 31.066 17.9245 29.491 16.5745 27.016C16.3495 26.641 16.4995 26.266 16.8745 26.041C17.2495 25.816 17.6245 25.966 17.8495 26.341C18.9745 28.366 21.3745 29.641 23.9995 29.641C26.6245 29.641 29.0245 28.366 30.1495 26.341C30.2995 25.966 30.7495 25.891 31.1245 26.041C31.4995 26.191 31.5745 26.641 31.4245 27.016C30.0745 29.491 27.1495 31.066 23.9995 31.066Z" fill="white"/>
</g>
<defs>
<clipPath id="clip0_3860_91">
<rect width="48" height="48" fill="white" transform="translate(0 0.315918)"/>
</clipPath>
</defs>
</svg>
