<svg width="48" height="49" viewBox="0 0 48 49" fill="none" xmlns="http://www.w3.org/2000/svg">
<g clip-path="url(#clip0_3860_46)">
<path fill-rule="evenodd" clip-rule="evenodd" d="M9.51665 14.2796H9.31767C8.54138 14.2796 7.82662 14.5706 7.28422 15.055C6.74182 15.5389 6.37135 16.2157 6.2832 16.9872L6.09949 18.5934C6.072 18.833 6.24436 19.0494 6.48349 19.0769C6.72262 19.104 6.93905 18.9321 6.96655 18.6929L7.15025 17.0862C7.21309 16.5356 7.47753 16.0521 7.86545 15.706C8.25294 15.3604 8.76305 15.1523 9.31767 15.1523H10.0691L20.6073 31.7974C20.7177 31.9719 20.8023 32.1604 20.8591 32.3568C20.9101 32.5331 20.9389 32.7155 20.9446 32.9005C20.9232 32.9079 20.9018 32.9158 20.8809 32.9245C20.7233 32.99 20.5789 33.0855 20.4563 33.2086C20.3332 33.3312 20.2377 33.4756 20.1722 33.6332C20.1072 33.7907 20.0727 33.9604 20.0727 34.1341V34.3523C18.1462 34.3523 16.4007 35.1342 15.1366 36.398C13.8729 37.6621 13.0909 39.4076 13.0909 41.3341C13.0909 42.1322 13.2249 42.8989 13.4723 43.6137C13.3553 43.5198 13.2419 43.4217 13.1324 43.3191C12.6833 42.8967 12.3002 42.3988 12.0044 41.8394L7.51898 33.3678C6.9216 32.2394 6.50225 31.0342 6.26793 29.794C6.03404 28.5534 5.98516 27.2784 6.13047 26.0099L6.76713 20.4384C6.79418 20.1988 6.62225 19.9824 6.38313 19.9549C6.14356 19.9278 5.92713 20.0998 5.90007 20.3389L5.26298 25.9108C5.10807 27.2666 5.16 28.6298 5.41047 29.9559C5.66051 31.2816 6.10909 32.5702 6.74793 33.7763L11.2329 42.2478C11.5745 42.8932 12.0161 43.4675 12.535 43.9549C13.0237 44.4144 13.5801 44.7958 14.1853 45.0864C14.4589 45.5149 14.7788 45.912 15.1366 46.2702C16.4007 47.534 18.1462 48.3159 20.0727 48.3159C21.9993 48.3159 23.7447 47.534 25.0089 46.2702C25.0534 46.2253 25.0975 46.1799 25.1411 46.1341H34.9091C35.15 46.1341 35.3455 45.9386 35.3455 45.6977C35.3455 45.4569 35.15 45.2614 34.9091 45.2614H25.8445C26.6081 44.1421 27.0545 42.7898 27.0545 41.3341L27.0393 40.8689C27.0236 40.6285 26.8154 40.4465 26.575 40.4622C26.335 40.478 26.1526 40.6861 26.1683 40.9265L26.1818 41.3341C26.1818 43.0198 25.4976 44.547 24.3914 45.6528C23.2857 46.759 21.7584 47.4432 20.0727 47.4432C18.3871 47.4432 16.8598 46.759 15.754 45.6528C14.6479 44.547 13.9636 43.0198 13.9636 41.3341C13.9636 39.6484 14.6479 38.1212 15.754 37.0154C16.8598 35.9092 18.3871 35.225 20.0727 35.225C21.3857 35.225 22.6028 35.64 23.599 36.346C24.6196 37.0695 25.409 38.0976 25.8336 39.298C25.9143 39.5249 26.1635 39.6441 26.3908 39.5638C26.6177 39.4835 26.7369 39.2339 26.6566 39.0065C26.273 37.9226 25.6289 36.9613 24.7999 36.1977C25.8406 36.8483 26.9773 37.4932 28.1175 38.0238C29.2111 38.5326 30.3089 38.9358 31.3313 39.1436C32.232 39.3264 33.3556 39.5367 34.5823 39.7566C35.8634 39.9866 37.2576 40.227 38.6278 40.4588C37.9405 41.2892 37.5273 42.3548 37.5273 43.5159C37.5273 44.1316 37.6433 44.7203 37.855 45.2614H36.6545C36.4137 45.2614 36.2182 45.4569 36.2182 45.6977C36.2182 45.9386 36.4137 46.1341 36.6545 46.1341H38.3044C38.4873 46.4142 38.6985 46.6739 38.9337 46.9095C39.8025 47.7783 41.0025 48.3159 42.3273 48.3159C43.6521 48.3159 44.8521 47.7783 45.7209 46.9095C45.9561 46.6739 46.1673 46.4142 46.3501 46.1341H46.6909C46.8977 46.1341 47.0985 46.0852 47.2787 45.9949C47.4585 45.9046 47.6177 45.7724 47.7412 45.6065C47.8647 45.4403 47.9455 45.25 47.9804 45.0519C48.0153 44.8534 48.0044 44.647 47.9446 44.4489L47.5811 42.7833C47.4873 42.4708 47.3463 42.1811 47.1665 41.9214C47.0012 41.6832 46.8035 41.4702 46.5796 41.2887C46.3601 40.8711 46.0813 40.4897 45.754 40.1559C45.5852 39.984 45.3089 39.9814 45.1366 40.1498C44.9647 40.3182 44.962 40.5949 45.1309 40.7668C45.4844 41.1277 45.7693 41.5562 45.9639 42.031C46.1511 42.4892 46.2545 42.9905 46.2545 43.5159C46.2545 44.5998 45.8147 45.5812 45.1039 46.2925C44.3926 47.0033 43.4112 47.4432 42.3273 47.4432C41.2433 47.4432 40.262 47.0033 39.5507 46.2925C38.8399 45.5812 38.4 44.5998 38.4 43.5159C38.4 42.432 38.8399 41.4506 39.5507 40.7393C40.262 40.0285 41.2433 39.5886 42.3273 39.5886C42.6292 39.5886 42.9238 39.6227 43.2061 39.6877C43.4976 39.754 43.7769 39.8535 44.0396 39.9809C44.2564 40.0865 44.5174 39.9958 44.623 39.7793C44.7281 39.5629 44.6378 39.3015 44.4209 39.1964C44.0993 39.0397 43.7577 38.9184 43.4012 38.8368C43.0556 38.7578 42.6964 38.7159 42.3273 38.7159C41.2303 38.7159 40.2183 39.0846 39.4097 39.7052L39.2727 39.682V36.9482C39.3412 36.9347 39.408 36.9142 39.4721 36.8876C39.6031 36.833 39.7235 36.7532 39.826 36.651C39.9281 36.5485 40.008 36.4281 40.0625 36.2972C40.1166 36.1658 40.1455 36.0244 40.1455 35.8796C40.1455 35.7347 40.1166 35.5933 40.0625 35.462C40.0276 35.3782 39.9823 35.2983 39.9273 35.225C39.9823 35.1517 40.0276 35.0718 40.0625 34.9881C40.1166 34.8567 40.1455 34.7153 40.1455 34.5705C40.1455 34.4967 40.138 34.4234 40.1232 34.3523H40.1455C40.3191 34.3523 40.4889 34.3178 40.6464 34.2528C40.8039 34.1873 40.9484 34.0918 41.071 33.9687C41.194 33.8461 41.2896 33.7017 41.3551 33.5441C41.4201 33.387 41.4545 33.2169 41.4545 33.0432V32.8006C41.4545 32.0225 41.1617 31.306 40.6756 30.7632C40.1895 30.2204 39.5101 29.8503 38.7364 29.7648C38.7351 29.7648 38.7343 29.7644 38.7329 29.7644C37.7996 29.6688 36.7047 29.5484 35.6854 29.4179C34.9449 29.3232 34.2445 29.2228 33.6759 29.1225C33.048 29.0116 32.2577 28.8144 31.4308 28.5836C30.271 28.2598 29.04 27.8692 28.0783 27.5524C28.0765 27.552 28.0752 27.5516 28.0739 27.5511C27.8047 27.4656 27.5228 27.4477 27.2518 27.4944C26.9812 27.5406 26.7212 27.6506 26.4956 27.8208C26.27 27.991 26.0924 28.2105 25.9737 28.4583C25.8545 28.7062 25.7943 28.982 25.8026 29.2643L25.913 33.0816C25.9235 33.4355 26.0736 33.7532 26.3097 33.9822C26.5135 34.1804 26.7809 34.3121 27.0781 34.3444C27.0624 34.4182 27.0545 34.4941 27.0545 34.5705C27.0545 34.7153 27.0833 34.8567 27.1375 34.9881C27.1724 35.0718 27.2177 35.1517 27.2727 35.225C27.2177 35.2983 27.1724 35.3782 27.1375 35.462C27.0833 35.5933 27.0545 35.7377 27.0545 35.8796C27.0545 36.1806 27.1767 36.4534 27.374 36.651C27.3975 36.6742 27.422 36.6969 27.4473 36.7178C26.3878 36.1623 25.3571 35.5335 24.4364 34.9278V34.1341C24.4364 33.9604 24.4019 33.7907 24.3369 33.6332C24.2714 33.4756 24.1759 33.3312 24.0528 33.2086C23.9302 33.0855 23.7857 32.99 23.6282 32.9245C23.6068 32.9158 23.585 32.9075 23.5632 32.8996C23.5575 32.4672 23.4929 32.0396 23.3738 31.6276C23.2486 31.1956 23.0623 30.7811 22.8192 30.3971C22.8192 30.3971 22.1332 29.3136 21.0319 27.5734C20.9027 27.37 20.633 27.3094 20.4297 27.4381C20.2259 27.5668 20.1657 27.8369 20.2944 28.0403C21.3962 29.7805 22.0817 30.8636 22.0817 30.8636C22.2807 31.1777 22.433 31.5172 22.5356 31.8707C22.6185 32.1561 22.6687 32.5165 22.6848 32.825H21.8103C21.7955 32.5959 21.7575 32.3206 21.6973 32.1137C21.6175 31.8388 21.4992 31.5748 21.3443 31.3305L3.61964 3.33294C3.36873 2.93715 3.02575 2.61905 2.62778 2.40043C2.23025 2.18137 1.76291 2.06137 1.30909 2.06137C1.06822 2.06137 0.872727 1.86588 0.872727 1.62501C0.872727 1.38414 1.06822 1.18865 1.30909 1.18865C1.92742 1.18865 2.52393 1.34705 3.04844 1.63592C3.57338 1.92479 4.02633 2.34414 4.35665 2.86603C4.35665 2.86603 14.1652 18.3587 19.1891 26.2948C19.3183 26.4982 19.5879 26.5588 19.7913 26.4301C19.9951 26.3014 20.0553 26.0313 19.9265 25.8279C14.9027 17.8922 5.09411 2.39955 5.09411 2.39955C4.68349 1.75068 4.12102 1.2301 3.46953 0.871409C2.81804 0.512281 2.07709 0.315918 1.30909 0.315918C0.586909 0.315918 0 0.902391 0 1.62501C0 2.34763 0.586473 2.9341 1.30909 2.9341C1.61804 2.9341 1.93615 3.0157 2.20713 3.16494C2.47767 3.31374 2.71156 3.53017 2.88218 3.79984L9.51665 14.2796ZM42.3273 41.4432C41.7552 41.4432 41.2372 41.6753 40.862 42.0506C40.4867 42.4259 40.2545 42.9438 40.2545 43.5159C40.2545 44.088 40.4867 44.606 40.862 44.9812C41.2372 45.3565 41.7552 45.5886 42.3273 45.5886C42.8993 45.5886 43.4173 45.3565 43.7926 44.9812C44.1679 44.606 44.4 44.088 44.4 43.5159C44.4 42.9438 44.1679 42.4259 43.7926 42.0506C43.4173 41.6753 42.8993 41.4432 42.3273 41.4432ZM47.0841 44.163C47.0326 44.5449 46.9357 44.9132 46.7996 45.2614H46.827C46.896 45.2614 47.0439 45.1409 47.0854 45.0855C47.1264 45.0301 47.1535 44.9668 47.1648 44.9005C47.2071 44.6609 47.0841 44.163 47.0841 44.163ZM42.3273 42.3159C42.6585 42.3159 42.9583 42.4503 43.1756 42.6676C43.3929 42.8849 43.5273 43.1847 43.5273 43.5159C43.5273 43.8471 43.3929 44.1469 43.1756 44.3642C42.9583 44.5815 42.6585 44.7159 42.3273 44.7159C41.9961 44.7159 41.6963 44.5815 41.479 44.3642C41.2617 44.1469 41.1273 43.8471 41.1273 43.5159C41.1273 43.1847 41.2617 42.8849 41.479 42.6676C41.6963 42.4503 41.9961 42.3159 42.3273 42.3159ZM20.0727 38.4432C19.2751 38.4432 18.552 38.767 18.0288 39.2902C17.5056 39.8134 17.1818 40.5364 17.1818 41.3341C17.1818 42.1318 17.5056 42.8548 18.0288 43.378C18.552 43.9012 19.2751 44.225 20.0727 44.225C20.8704 44.225 21.5935 43.9012 22.1167 43.378C22.6399 42.8548 22.9636 42.1318 22.9636 41.3341C22.9636 40.5364 22.6399 39.8134 22.1167 39.2902C21.5935 38.767 20.8704 38.4432 20.0727 38.4432ZM20.0727 39.3159C20.6295 39.3159 21.134 39.542 21.4996 39.9072C21.8649 40.2729 22.0909 40.7773 22.0909 41.3341C22.0909 41.8909 21.8649 42.3953 21.4996 42.761C21.134 43.1262 20.6295 43.3523 20.0727 43.3523C19.5159 43.3523 19.0115 43.1262 18.6458 42.761C18.2806 42.3953 18.0545 41.8909 18.0545 41.3341C18.0545 40.7773 18.2806 40.2729 18.6458 39.9072C19.0115 39.542 19.5159 39.3159 20.0727 39.3159ZM38.4 39.535V36.9705H37.9636C37.7228 36.9705 37.5273 36.775 37.5273 36.5341C37.5273 36.2932 37.7228 36.0977 37.9636 36.0977H39.0545C39.0833 36.0977 39.1117 36.0921 39.1379 36.0812C39.1641 36.0702 39.1885 36.0541 39.209 36.034C39.2291 36.0135 39.2452 35.9891 39.2561 35.9629C39.2671 35.9367 39.2727 35.9084 39.2727 35.8796C39.2727 35.8508 39.2671 35.8224 39.2561 35.7962C39.2452 35.77 39.2291 35.7456 39.209 35.7251C39.1885 35.705 39.1641 35.6889 39.1379 35.678C39.1117 35.667 39.0833 35.6614 39.0545 35.6614H31.4182C31.1773 35.6614 30.9818 35.4659 30.9818 35.225C30.9818 34.9841 31.1773 34.7886 31.4182 34.7886H39.0545C39.0833 34.7886 39.1117 34.783 39.1379 34.7721C39.1641 34.7612 39.1885 34.745 39.209 34.7249C39.2291 34.7044 39.2452 34.68 39.2561 34.6538C39.2671 34.6276 39.2727 34.5993 39.2727 34.5705C39.2727 34.5417 39.2671 34.5133 39.2561 34.4871C39.2452 34.4609 39.2291 34.4365 39.209 34.416C39.1885 34.3959 39.1641 34.3798 39.1379 34.3689C39.1117 34.358 39.0833 34.3523 39.0545 34.3523H36.2182C35.9773 34.3523 35.7818 34.1568 35.7818 33.9159C35.7818 33.675 35.9773 33.4796 36.2182 33.4796H40.1455C40.2035 33.4796 40.2598 33.4682 40.3126 33.4464C40.3649 33.4246 40.4129 33.3927 40.454 33.3517C40.495 33.3107 40.5268 33.2627 40.5487 33.2103C40.5705 33.158 40.5818 33.1012 40.5818 33.0432V32.8006C40.5818 32.2446 40.3728 31.7332 40.0255 31.3453C39.6785 30.9578 39.1937 30.6938 38.6417 30.6323C37.7023 30.5358 36.6004 30.415 35.5745 30.2836C34.8192 30.1868 34.1044 30.0842 33.5241 29.9821C32.873 29.8669 32.0535 29.6636 31.1961 29.424C30.0244 29.0967 28.7808 28.7027 27.8081 28.3824C27.6742 28.3401 27.5337 28.3313 27.3988 28.3545C27.2636 28.3776 27.1335 28.4326 27.0209 28.5177C26.9084 28.6028 26.8198 28.7123 26.7604 28.8362C26.7007 28.9597 26.6705 29.0976 26.6749 29.2385L26.7853 33.0558C26.7888 33.1741 26.839 33.2797 26.9175 33.3561C26.9961 33.4324 27.1034 33.4796 27.2217 33.4796H34.4727C34.7136 33.4796 34.9091 33.675 34.9091 33.9159C34.9091 34.1568 34.7136 34.3523 34.4727 34.3523H28.1455C28.1167 34.3523 28.0883 34.358 28.0621 34.3689C28.0359 34.3798 28.0115 34.3959 27.991 34.416C27.9709 34.4365 27.9548 34.4609 27.9439 34.4871C27.9329 34.5133 27.9273 34.5417 27.9273 34.5705C27.9273 34.5993 27.9329 34.6276 27.9439 34.6538C27.9548 34.68 27.9709 34.7044 27.991 34.7249C28.0115 34.745 28.0359 34.7612 28.0621 34.7721C28.0883 34.783 28.1167 34.7886 28.1455 34.7886H29.6727C29.9136 34.7886 30.1091 34.9841 30.1091 35.225C30.1091 35.4659 29.9136 35.6614 29.6727 35.6614H28.1455C28.1167 35.6614 28.0883 35.667 28.0621 35.678C28.0359 35.6889 28.0115 35.705 27.991 35.7251C27.9709 35.7456 27.9548 35.77 27.9439 35.7962C27.9329 35.8224 27.9273 35.8512 27.9273 35.8796C27.9273 35.9398 27.9517 35.9943 27.991 36.034C28.0307 36.0733 28.0852 36.0977 28.1455 36.0977H36.2182C36.459 36.0977 36.6545 36.2932 36.6545 36.5341C36.6545 36.775 36.459 36.9705 36.2182 36.9705H28.8V37.3754C29.7229 37.7869 30.6423 38.1129 31.505 38.2883C32.4004 38.4702 33.5171 38.6788 34.7363 38.8974C35.8983 39.106 37.1537 39.3233 38.4 39.535ZM27.8727 36.936L27.9273 36.9635V36.9486L27.8727 36.936ZM23.5636 35.2874V34.1341C23.5636 34.0761 23.5523 34.0198 23.5305 33.967C23.5087 33.9146 23.4768 33.8666 23.4358 33.8256C23.3948 33.7846 23.3468 33.7527 23.2944 33.7309C23.242 33.7091 23.1853 33.6977 23.1273 33.6977H21.3818C21.3238 33.6977 21.2671 33.7091 21.2147 33.7309C21.1623 33.7527 21.1143 33.7846 21.0733 33.8256C21.0323 33.8666 21.0004 33.9146 20.9786 33.967C20.9568 34.0198 20.9455 34.0761 20.9455 34.1341V34.4064C21.8893 34.5242 22.7751 34.831 23.5636 35.2874Z" fill="white"/>
</g>
<defs>
<clipPath id="clip0_3860_46">
<rect width="48" height="48" fill="white" transform="translate(0 0.315918)"/>
</clipPath>
</defs>
</svg>
